<svg width="18" height="18" viewBox="0 0 18 18" fill="none" xmlns="http://www.w3.org/2000/svg">
<path d="M3.9512 2.99874C3.819 3.22717 3.74943 3.48643 3.74951 3.75035V14.2497C3.74943 14.5136 3.819 14.7728 3.9512 15.0013C4.08339 15.2297 4.27353 15.4192 4.50242 15.5507C4.7313 15.6821 4.99083 15.7509 5.25479 15.75C5.51875 15.7491 5.7778 15.6786 6.00579 15.5456L15.0069 10.2959C15.2338 10.1638 15.422 9.97441 15.5527 9.74675C15.6835 9.51909 15.7521 9.26112 15.7519 8.9986C15.7517 8.73609 15.6825 8.47823 15.5514 8.2508C15.4203 8.02337 15.2317 7.83434 15.0046 7.70259L6.00579 2.45443C5.7778 2.32142 5.51875 2.2509 5.25479 2.25001C4.99083 2.24911 4.7313 2.31787 4.50242 2.44933C4.27353 2.58079 4.08339 2.77031 3.9512 2.99874Z" stroke="#F8FAFC" stroke-width="2" stroke-linecap="round"/>
</svg>
