<svg width="16" height="16" viewBox="0 0 16 16" fill="none" xmlns="http://www.w3.org/2000/svg">
<g clip-path="url(#clip0_90_1171)">
<path d="M5.72656 9.00655L10.2799 11.6601M10.2732 4.33951L5.72656 6.99306M14 3.33292C14 4.43758 13.1046 5.33308 12 5.33308C10.8954 5.33308 10 4.43758 10 3.33292C10 2.22827 10.8954 1.33276 12 1.33276C13.1046 1.33276 14 2.22827 14 3.33292ZM6 7.99996C6 9.10462 5.10457 10.0001 4 10.0001C2.89543 10.0001 2 9.10462 2 7.99996C2 6.89531 2.89543 5.9998 4 5.9998C5.10457 5.9998 6 6.89531 6 7.99996ZM14 12.667C14 13.7717 13.1046 14.6672 12 14.6672C10.8954 14.6672 10 13.7717 10 12.667C10 11.5623 10.8954 10.6668 12 10.6668C13.1046 10.6668 14 11.5623 14 12.667Z" stroke="#F8FAFC" stroke-width="2" stroke-linecap="round"/>
</g>
<defs>
<clipPath id="clip0_90_1171">
<rect width="16" height="16" fill="white"/>
</clipPath>
</defs>
</svg>
